<svg width="101" height="97" viewBox="0 0 101 97" fill="none" xmlns="http://www.w3.org/2000/svg">
<ellipse cx="50.5" cy="48.4366" rx="50.5" ry="48.4366" fill="white"/>
<path d="M26.1775 15.856H74.6093C79.2105 15.856 82.9721 19.6188 82.9721 24.2201V72.6518C82.9721 77.2518 79.2105 81.012 74.6093 81.012H26.1775C21.5762 81.012 17.8108 77.2516 17.8108 72.6518V24.2201C17.8108 19.6188 21.5762 15.856 26.1775 15.856ZM65.2799 23.0926C63.6643 23.0926 62.3466 24.4155 62.3466 26.0302V33.049C62.3466 34.6643 63.6643 35.9843 65.2799 35.9843H72.6438C74.2567 35.9843 75.5773 34.6643 75.5773 33.049V26.0302C75.5773 24.4155 74.2567 23.0926 72.6438 23.0926H65.2799ZM75.6054 43.4096H69.872C70.4157 45.1853 70.7104 47.0578 70.7104 49.0046C70.7104 59.8392 61.6387 68.6268 50.4527 68.6268C39.2695 68.6268 30.1975 59.8392 30.1975 49.0046C30.1975 47.0578 30.4951 45.1853 31.0361 43.4096H25.0545V70.9364C25.0545 72.3619 26.2185 73.5215 27.6427 73.5215H73.0182C74.4437 73.5215 75.6054 72.3619 75.6054 70.9364V43.4096ZM50.4529 35.6142C43.2287 35.6142 37.3685 41.2893 37.3685 48.2963C37.3685 55.2961 43.2287 60.9756 50.4529 60.9756C57.681 60.9756 63.5414 55.2961 63.5414 48.2963C63.5414 41.2891 57.681 35.6142 50.4529 35.6142Z" fill="#F53838"/>
</svg>
