<svg width="338" height="338" viewBox="0 0 338 338" fill="none" xmlns="http://www.w3.org/2000/svg">
<path d="M168.999 337.999C262.335 337.999 337.999 262.335 337.999 168.999C337.999 75.6637 262.335 0 168.999 0C75.6637 0 0 75.6637 0 168.999C0 262.335 75.6637 337.999 168.999 337.999Z" fill="white"/>
<path d="M272.518 121.455C265.275 124.667 257.485 126.839 249.315 127.809C257.657 122.811 264.058 114.903 267.08 105.465C259.274 110.095 250.625 113.454 241.428 115.264C234.059 107.417 223.56 102.512 211.935 102.512C189.63 102.512 171.539 120.603 171.539 142.908C171.539 146.074 171.898 149.156 172.59 152.114C139.018 150.43 109.251 134.349 89.3259 109.902C85.8494 115.867 83.855 122.811 83.855 130.213C83.855 144.224 90.9918 156.594 101.825 163.836C95.2064 163.628 88.9734 161.812 83.5297 158.778C83.5267 158.95 83.5267 159.122 83.5267 159.29C83.5267 178.863 97.4568 195.188 115.933 198.897C112.547 199.824 108.971 200.315 105.293 200.315C102.684 200.315 100.156 200.065 97.6918 199.595C102.831 215.64 117.747 227.32 135.427 227.649C121.6 238.485 104.184 244.941 85.2529 244.941C81.9993 244.941 78.7758 244.751 75.6217 244.374C93.4893 255.84 114.728 262.525 137.539 262.525C211.841 262.525 252.475 200.972 252.475 147.586C252.475 145.836 252.436 144.092 252.357 142.363C260.256 136.669 267.104 129.556 272.518 121.455Z" fill="#F53838"/>
</svg>
